<?xml version="1.0" encoding="UTF-8" standalone="no"?>
<!DOCTYPE svg PUBLIC "-//W3C//DTD SVG 1.1//EN"
 "http://www.w3.org/Graphics/SVG/1.1/DTD/svg11.dtd">
<!-- Generated by graphviz version 2.43.0 (0)
 -->
<!-- Title: pastafarianism Pages: 1 -->
<svg width="808pt" height="280pt"
 viewBox="0.00 0.00 807.72 280.00" xmlns="http://www.w3.org/2000/svg" xmlns:xlink="http://www.w3.org/1999/xlink">
<g id="graph0" class="graph" transform="scale(1 1) rotate(0) translate(4 276)">
<title>pastafarianism</title>
<polygon fill="white" stroke="transparent" points="-4,4 -4,-276 803.72,-276 803.72,4 -4,4"/>
<!-- Sequence -->
<g id="node1" class="node">
<title>Sequence</title>
<polygon fill="orange" stroke="black" points="375.8,-272 301.8,-272 301.8,-236 375.8,-236 375.8,-272"/>
<text text-anchor="middle" x="338.8" y="-251.8" font-family="Times,serif" font-size="9.00">Ⓜ Sequence</text>
</g>
<!-- Sequence* -->
<g id="node2" class="node">
<title>Sequence*</title>
<polygon fill="orange" stroke="black" points="377.8,-200 299.8,-200 299.8,-164 377.8,-164 377.8,-200"/>
<text text-anchor="middle" x="338.8" y="-179.8" font-family="Times,serif" font-size="9.00">Ⓜ Sequence*</text>
</g>
<!-- Sequence&#45;&gt;Sequence* -->
<g id="edge1" class="edge">
<title>Sequence&#45;&gt;Sequence*</title>
<path fill="none" stroke="black" d="M338.8,-235.7C338.8,-227.98 338.8,-218.71 338.8,-210.11"/>
<polygon fill="black" stroke="black" points="342.3,-210.1 338.8,-200.1 335.3,-210.1 342.3,-210.1"/>
</g>
<!-- MovePose -->
<g id="node3" class="node">
<title>MovePose</title>
<ellipse fill="gray" stroke="black" cx="35.8" cy="-100" rx="35.59" ry="18"/>
<text text-anchor="middle" x="35.8" y="-97.8" font-family="Times,serif" font-size="9.00">MovePose</text>
</g>
<!-- Sequence*&#45;&gt;MovePose -->
<g id="edge2" class="edge">
<title>Sequence*&#45;&gt;MovePose</title>
<path fill="none" stroke="black" d="M299.61,-177.11C248.01,-171.07 155.15,-156.97 80.8,-128 75.49,-125.93 70.09,-123.27 64.96,-120.41"/>
<polygon fill="black" stroke="black" points="66.49,-117.25 56.1,-115.17 62.93,-123.28 66.49,-117.25"/>
</g>
<!-- OpenGripper -->
<g id="node4" class="node">
<title>OpenGripper</title>
<ellipse fill="gray" stroke="black" cx="134.8" cy="-100" rx="45.07" ry="18"/>
<text text-anchor="middle" x="134.8" y="-97.8" font-family="Times,serif" font-size="9.00">OpenGripper</text>
</g>
<!-- Sequence*&#45;&gt;OpenGripper -->
<g id="edge3" class="edge">
<title>Sequence*&#45;&gt;OpenGripper</title>
<path fill="none" stroke="black" d="M299.75,-168.68C269.18,-158.68 225.78,-143.71 188.8,-128 182.72,-125.42 176.36,-122.47 170.23,-119.5"/>
<polygon fill="black" stroke="black" points="171.37,-116.16 160.86,-114.85 168.26,-122.43 171.37,-116.16"/>
</g>
<!-- MovePose* -->
<g id="node5" class="node">
<title>MovePose*</title>
<ellipse fill="gray" stroke="black" cx="236.8" cy="-100" rx="38.87" ry="18"/>
<text text-anchor="middle" x="236.8" y="-97.8" font-family="Times,serif" font-size="9.00">MovePose*</text>
</g>
<!-- Sequence*&#45;&gt;MovePose* -->
<g id="edge4" class="edge">
<title>Sequence*&#45;&gt;MovePose*</title>
<path fill="none" stroke="black" d="M316.91,-163.84C301.46,-151.72 280.64,-135.39 264.1,-122.42"/>
<polygon fill="black" stroke="black" points="265.92,-119.4 255.89,-115.98 261.6,-124.9 265.92,-119.4"/>
</g>
<!-- CloseGripper -->
<g id="node6" class="node">
<title>CloseGripper</title>
<ellipse fill="gray" stroke="black" cx="338.8" cy="-100" rx="45.07" ry="18"/>
<text text-anchor="middle" x="338.8" y="-97.8" font-family="Times,serif" font-size="9.00">CloseGripper</text>
</g>
<!-- Sequence*&#45;&gt;CloseGripper -->
<g id="edge5" class="edge">
<title>Sequence*&#45;&gt;CloseGripper</title>
<path fill="none" stroke="black" d="M338.8,-163.64C338.8,-153.3 338.8,-139.94 338.8,-128.22"/>
<polygon fill="black" stroke="black" points="342.3,-128.05 338.8,-118.05 335.3,-128.05 342.3,-128.05"/>
</g>
<!-- Parallel -->
<g id="node7" class="node">
<title>Parallel</title>
<polygon fill="gold" stroke="black" points="580.12,-128 438.03,-128 401.47,-72 543.56,-72 580.12,-128"/>
<text text-anchor="middle" x="490.8" y="-102.8" font-family="Times,serif" font-size="9.00">Parallel</text>
<text text-anchor="middle" x="490.8" y="-92.8" font-family="Times,serif" font-size="9.00">SuccessOnOne</text>
</g>
<!-- Sequence*&#45;&gt;Parallel -->
<g id="edge6" class="edge">
<title>Sequence*&#45;&gt;Parallel</title>
<path fill="none" stroke="black" d="M371.4,-163.84C388.58,-154.8 410.19,-143.42 430.3,-132.84"/>
<polygon fill="black" stroke="black" points="432.19,-135.8 439.41,-128.05 428.93,-129.61 432.19,-135.8"/>
</g>
<!-- MovePose*** -->
<g id="node10" class="node">
<title>MovePose***</title>
<ellipse fill="gray" stroke="black" cx="641.8" cy="-100" rx="43.76" ry="18"/>
<text text-anchor="middle" x="641.8" y="-97.8" font-family="Times,serif" font-size="9.00">MovePose***</text>
</g>
<!-- Sequence*&#45;&gt;MovePose*** -->
<g id="edge9" class="edge">
<title>Sequence*&#45;&gt;MovePose***</title>
<path fill="none" stroke="black" d="M378.21,-175.91C428.22,-168.72 516.64,-153.53 588.8,-128 595.34,-125.69 602.09,-122.73 608.51,-119.62"/>
<polygon fill="black" stroke="black" points="610.24,-122.66 617.58,-115.02 607.08,-116.42 610.24,-122.66"/>
</g>
<!-- OpenGripper* -->
<g id="node11" class="node">
<title>OpenGripper*</title>
<ellipse fill="gray" stroke="black" cx="751.8" cy="-100" rx="47.84" ry="18"/>
<text text-anchor="middle" x="751.8" y="-97.8" font-family="Times,serif" font-size="9.00">OpenGripper*</text>
</g>
<!-- Sequence*&#45;&gt;OpenGripper* -->
<g id="edge10" class="edge">
<title>Sequence*&#45;&gt;OpenGripper*</title>
<path fill="none" stroke="black" d="M377.81,-178.95C444.2,-174.63 582.85,-162.03 694.8,-128 702,-125.81 709.44,-122.85 716.48,-119.69"/>
<polygon fill="black" stroke="black" points="718.21,-122.74 725.76,-115.31 715.23,-116.41 718.21,-122.74"/>
</g>
<!-- MovePose** -->
<g id="node8" class="node">
<title>MovePose**</title>
<ellipse fill="gray" stroke="black" cx="426.8" cy="-18" rx="40.98" ry="18"/>
<text text-anchor="middle" x="426.8" y="-15.8" font-family="Times,serif" font-size="9.00">MovePose**</text>
</g>
<!-- Parallel&#45;&gt;MovePose** -->
<g id="edge7" class="edge">
<title>Parallel&#45;&gt;MovePose**</title>
<path fill="none" stroke="black" d="M469.13,-71.92C461.69,-62.61 453.41,-52.27 446.17,-43.21"/>
<polygon fill="black" stroke="black" points="448.83,-40.94 439.85,-35.32 443.37,-45.32 448.83,-40.94"/>
</g>
<!-- MeasureAppliedForce -->
<g id="node9" class="node">
<title>MeasureAppliedForce</title>
<ellipse fill="gray" stroke="black" cx="554.8" cy="-18" rx="68.91" ry="18"/>
<text text-anchor="middle" x="554.8" y="-15.8" font-family="Times,serif" font-size="9.00">MeasureAppliedForce</text>
</g>
<!-- Parallel&#45;&gt;MeasureAppliedForce -->
<g id="edge8" class="edge">
<title>Parallel&#45;&gt;MeasureAppliedForce</title>
<path fill="none" stroke="black" d="M512.46,-71.92C519.79,-62.75 527.93,-52.58 535.1,-43.62"/>
<polygon fill="black" stroke="black" points="537.85,-45.79 541.36,-35.79 532.38,-41.42 537.85,-45.79"/>
</g>
</g>
</svg>
